<?xml version="1.0" encoding="UTF-8" standalone="no"?>
<!-- Created with Inkscape (http://www.inkscape.org/) -->

<svg
   width="24.885824"
   height="20.489687"
   viewBox="0 0 6.5843743 5.4212297"
   version="1.1"
   id="svg5"
   xml:space="preserve"
   xmlns="http://www.w3.org/2000/svg"
   xmlns:svg="http://www.w3.org/2000/svg"><defs
     id="defs2" /><g
     id="layer1"
     transform="translate(76.055753,-142.14225)"><path
       id="rect349"
       style="color:#000000;fill:#000000;stroke-linecap:round;-inkscape-stroke:none;paint-order:stroke fill markers"
       d="M -75.465091 145.8614 C -75.789425 145.8614 -76.056787 146.12877 -76.056787 146.4531 L -76.056787 147.0665 C -76.056787 147.39083 -75.789425 147.65819 -75.465091 147.65819 L -70.06232 147.65819 C -69.737986 147.65819 -69.470625 147.39083 -69.470625 147.0665 L -69.470625 146.4531 C -69.470625 146.12877 -69.737986 145.8614 -70.06232 145.8614 L -70.418371 145.8614 L -70.418371 146.25776 L -70.06232 146.25776 C -69.95099 146.25776 -69.869051 146.34179 -69.869051 146.4531 L -69.869051 147.0665 C -69.869051 147.17783 -69.950991 147.25977 -70.06232 147.25977 L -75.465091 147.25977 C -75.576421 147.25977 -75.658361 147.17786 -75.658361 147.0665 L -75.658361 146.4531 C -75.658361 146.34177 -75.57642 146.25776 -75.465091 146.25776 L -75.109041 146.25776 L -75.109041 145.8614 L -75.465091 145.8614 z " /><path
       d="m -73.802057,146.85884 c -0.02205,0.0176 -0.04409,0.0298 -0.06614,0.0364 -0.02205,0.007 -0.04409,0.01 -0.06615,0.01 -0.02646,0 -0.05182,-0.004 -0.07607,-0.0132 -0.02425,-0.009 -0.0474,-0.0243 -0.06945,-0.0463 -0.180803,-0.18961 -0.315291,-0.38474 -0.40349,-0.58539 -0.0882,-0.20065 -0.132291,-0.4112 -0.132291,-0.63169 0,-0.15875 0.02425,-0.32742 0.07276,-0.50602 0.04851,-0.17859 0.134501,-0.42002 0.257969,-0.7243 0.114657,-0.26458 0.191823,-0.46853 0.23151,-0.61184 0.03969,-0.14332 0.05953,-0.27451 0.05953,-0.39357 0,-0.16758 -0.03638,-0.32302 -0.10914,-0.46633 -0.07276,-0.14331 -0.186306,-0.28773 -0.340651,-0.43326 -0.02205,-0.022 -0.03748,-0.0452 -0.0463,-0.0694 -0.0088,-0.0242 -0.01323,-0.0496 -0.01323,-0.0761 0,-0.022 0.0033,-0.0452 0.0099,-0.0694 0.0066,-0.0242 0.01875,-0.0474 0.03638,-0.0694 0.02205,-0.0221 0.0452,-0.0386 0.06945,-0.0496 0.02425,-0.011 0.04961,-0.0165 0.07607,-0.0165 0.02205,0 0.0452,0.004 0.06945,0.0132 0.02425,0.009 0.0474,0.0242 0.06945,0.0463 0.194032,0.1808 0.338441,0.36821 0.433255,0.56224 0.09481,0.19403 0.142213,0.40128 0.142213,0.62177 0,0.14993 -0.02315,0.30979 -0.06945,0.47956 -0.0463,0.16977 -0.128984,0.39797 -0.248047,0.68461 -0.110238,0.26458 -0.187417,0.47404 -0.23151,0.62839 -0.04409,0.15434 -0.06615,0.29986 -0.06615,0.43656 0,0.17638 0.03528,0.34396 0.105834,0.50271 0.07055,0.15875 0.176384,0.31309 0.3175,0.46302 0.01763,0.0221 0.02976,0.0441 0.03638,0.0661 0.0066,0.0221 0.0099,0.0441 0.0099,0.0661 0,0.0265 -0.0044,0.0518 -0.01323,0.0761 -0.0088,0.0243 -0.02425,0.0474 -0.0463,0.0695 z"
       id="path1984" /><path
       d="m -71.116536,146.85884 c -0.02205,0.0176 -0.04409,0.0298 -0.06615,0.0364 -0.02205,0.007 -0.04409,0.01 -0.06615,0.01 -0.02646,0 -0.05182,-0.004 -0.07607,-0.0132 -0.02425,-0.009 -0.0474,-0.0243 -0.06945,-0.0463 -0.180803,-0.18961 -0.315291,-0.38474 -0.40349,-0.58539 -0.0882,-0.20065 -0.132292,-0.4112 -0.132292,-0.63169 0,-0.15875 0.02425,-0.32742 0.07276,-0.50602 0.04851,-0.17859 0.134501,-0.42002 0.257969,-0.7243 0.114657,-0.26458 0.191823,-0.46853 0.23151,-0.61184 0.03969,-0.14332 0.05953,-0.27451 0.05953,-0.39357 0,-0.16758 -0.03638,-0.32302 -0.10914,-0.46633 -0.07276,-0.14331 -0.186307,-0.28773 -0.340651,-0.43326 -0.02205,-0.022 -0.03638,-0.0441 -0.043,-0.0661 -0.0066,-0.0221 -0.0099,-0.0463 -0.0099,-0.0728 0,-0.022 0.0033,-0.0452 0.0099,-0.0694 0.0066,-0.0243 0.01875,-0.0474 0.03638,-0.0695 0.02205,-0.0221 0.0452,-0.0375 0.06945,-0.0463 0.02425,-0.009 0.04961,-0.0132 0.07607,-0.0132 0.02205,0 0.04409,0.003 0.06615,0.01 0.02205,0.007 0.04409,0.0187 0.06615,0.0364 0.194032,0.1808 0.338441,0.36821 0.433255,0.56224 0.09481,0.19403 0.142213,0.40128 0.142213,0.62177 0,0.14993 -0.02205,0.30648 -0.06615,0.46964 -0.04409,0.16315 -0.127886,0.39466 -0.251354,0.69453 -0.114657,0.26458 -0.194032,0.47515 -0.238125,0.63169 -0.04409,0.15654 -0.06615,0.30097 -0.06615,0.43326 0,0.17198 0.03528,0.33844 0.105834,0.4994 0.07055,0.16096 0.178594,0.3164 0.324114,0.46633 0.01763,0.0221 0.02977,0.0441 0.03638,0.0661 0.0066,0.0221 0.0099,0.0441 0.0099,0.0661 0,0.0265 -0.0044,0.0518 -0.01323,0.0761 -0.0088,0.0243 -0.02425,0.0474 -0.0463,0.0695 z"
       id="path1982" /><path
       d="m -72.459296,146.85184 c -0.02205,0.0176 -0.0452,0.0309 -0.06945,0.0397 -0.02425,0.009 -0.0474,0.0132 -0.06945,0.0132 -0.02646,0 -0.05071,-0.004 -0.07276,-0.0132 -0.02205,-0.009 -0.04409,-0.0243 -0.06615,-0.0463 -0.180803,-0.18961 -0.31529,-0.38585 -0.403489,-0.5887 -0.0882,-0.20284 -0.132292,-0.41451 -0.132292,-0.635 0,-0.15875 0.02425,-0.32742 0.07276,-0.50601 0.04851,-0.1786 0.134501,-0.42003 0.257969,-0.7243 0.114657,-0.26458 0.191823,-0.46854 0.231511,-0.61185 0.03969,-0.14331 0.05953,-0.2745 0.05953,-0.39357 0,-0.16757 -0.03638,-0.32411 -0.109141,-0.46963 -0.07276,-0.14552 -0.186306,-0.28884 -0.340651,-0.42995 -0.02205,-0.0221 -0.03748,-0.0452 -0.0463,-0.0694 -0.0088,-0.0243 -0.01323,-0.0496 -0.01323,-0.0761 0,-0.0221 0.0033,-0.0441 0.0099,-0.0661 0.0066,-0.0221 0.01875,-0.0441 0.03638,-0.0661 0.02205,-0.0221 0.0452,-0.0386 0.06945,-0.0496 0.02425,-0.011 0.04961,-0.0165 0.07607,-0.0165 0.02205,0 0.0452,0.004 0.06945,0.0132 0.02425,0.009 0.0474,0.0242 0.06945,0.0463 0.194032,0.1808 0.338442,0.36821 0.433255,0.56224 0.09481,0.19403 0.142214,0.40128 0.142214,0.62177 0,0.14993 -0.02205,0.30758 -0.06615,0.47295 -0.04409,0.16536 -0.127886,0.39356 -0.251354,0.68461 -0.114657,0.26898 -0.194032,0.48176 -0.238125,0.6383 -0.04409,0.15654 -0.06615,0.30097 -0.06615,0.43326 0,0.17198 0.03528,0.33624 0.105833,0.49278 0.07055,0.15655 0.178594,0.31199 0.324115,0.46633 0.01763,0.0221 0.02977,0.0441 0.03638,0.0662 0.0066,0.022 0.0099,0.0441 0.0099,0.0661 0,0.0265 -0.0044,0.0518 -0.01323,0.0761 -0.0088,0.0243 -0.02425,0.0474 -0.0463,0.0695 z"
       id="path131" /><path
       style="fill:none;fill-opacity:1;stroke:#000000;stroke-width:0.396875;stroke-linecap:round;stroke-dasharray:none;stroke-opacity:1;paint-order:stroke fill markers"
       d="m -75.307102,142.87758 c 0.434594,0.77015 -0.574589,0.98746 0.271673,1.85736"
       id="path1200" /><path
       style="fill:none;fill-opacity:1;stroke:#000000;stroke-width:0.396875;stroke-linecap:round;stroke-dasharray:none;stroke-opacity:1;paint-order:stroke fill markers"
       d="m -70.430061,143.45781 c 0.434594,0.77015 -0.574589,0.98746 0.271673,1.85736"
       id="path1251" /></g></svg>
