<?xml version="1.0" encoding="UTF-8" standalone="no"?>
<!-- Created with Inkscape (http://www.inkscape.org/) -->

<svg
   width="445.0351"
   height="507.29233"
   viewBox="0 0 117.74887 134.2211"
   version="1.1"
   id="svg5"
   xml:space="preserve"
   sodipodi:docname="logo_repo.svg"
   inkscape:version="1.2.1 (9c6d41e410, 2022-07-14)"
   inkscape:export-filename="..\..\assets\logo_repo.png"
   inkscape:export-xdpi="96"
   inkscape:export-ydpi="96"
   xmlns:inkscape="http://www.inkscape.org/namespaces/inkscape"
   xmlns:sodipodi="http://sodipodi.sourceforge.net/DTD/sodipodi-0.dtd"
   xmlns:xlink="http://www.w3.org/1999/xlink"
   xmlns="http://www.w3.org/2000/svg"
   xmlns:svg="http://www.w3.org/2000/svg"><sodipodi:namedview
     id="namedview424"
     pagecolor="#505050"
     bordercolor="#eeeeee"
     borderopacity="1"
     inkscape:showpageshadow="0"
     inkscape:pageopacity="0"
     inkscape:pagecheckerboard="0"
     inkscape:deskcolor="#505050"
     showgrid="false"
     inkscape:zoom="0.2235086"
     inkscape:cx="62.637411"
     inkscape:cy="40.266907"
     inkscape:window-width="1920"
     inkscape:window-height="1009"
     inkscape:window-x="-8"
     inkscape:window-y="-8"
     inkscape:window-maximized="1"
     inkscape:current-layer="svg5" /><defs
     id="defs2"><linearGradient
       inkscape:collect="always"
       id="linearGradient17688"><stop
         style="stop-color:#f800ff;stop-opacity:1;"
         offset="0.01695653"
         id="stop17684" /><stop
         style="stop-color:#ffd500;stop-opacity:1;"
         offset="1"
         id="stop17686" /></linearGradient><linearGradient
       inkscape:collect="always"
       id="linearGradient1582"><stop
         style="stop-color:#ff0000;stop-opacity:1;"
         offset="0.04272059"
         id="stop1578" /><stop
         style="stop-color:#ea00ff;stop-opacity:1;"
         offset="1"
         id="stop1580" /></linearGradient><linearGradient
       inkscape:collect="always"
       xlink:href="#linearGradient1582"
       id="linearGradient1418"
       x1="3.8026307"
       y1="-4.1329517"
       x2="-8.9819002"
       y2="7.5596404"
       gradientUnits="userSpaceOnUse" /><linearGradient
       inkscape:collect="always"
       xlink:href="#linearGradient17688"
       id="linearGradient17682"
       gradientUnits="userSpaceOnUse"
       x1="3.8026307"
       y1="-4.1329517"
       x2="-5.7265258"
       y2="10.3711" /></defs><path
     sodipodi:type="star"
     style="fill:url(#linearGradient1418);fill-opacity:1;stroke:none;stroke-width:0.102332;stroke-linecap:round;stroke-dasharray:none;paint-order:stroke fill markers"
     id="path1335"
     inkscape:flatsided="true"
     sodipodi:sides="6"
     sodipodi:cx="-1.8572125"
     sodipodi:cy="2.2234235"
     sodipodi:r1="6.4890633"
     sodipodi:r2="3.2445319"
     sodipodi:arg1="-1.5707963"
     sodipodi:arg2="-1.0471975"
     inkscape:rounded="0.03"
     inkscape:randomized="0"
     d="m -1.8572124,-4.2656398 c 0.1946719,0 5.5223576,3.075941 5.6196936,3.2445318 0.097336,0.16859081 0.097336,6.3204725 -2e-7,6.4890633 -0.097336,0.1685908 -5.4250218,3.2445314 -5.6196937,3.2445314 -0.1946719,0 -5.5223576,-3.0759409 -5.6196936,-3.2445317 -0.097336,-0.1685908 -0.097336,-6.32047249 2e-7,-6.4890633 0.097336,-0.1685908 5.4250218,-3.2445315 5.6196937,-3.2445315 z"
     inkscape:transform-center-y="-16.777632"
     transform="matrix(10.342101,0,0,10.342101,212.75155,44.115677)"
     inkscape:transform-center-x="3.6384809e-06" /><g
     style="fill:#ffffff;stroke-width:0.132103"
     id="g553"
     transform="matrix(2.0028445,0,0,2.0028445,169.50765,33.196907)"><path
       fill="#000000"
       d="m 13.456376,22.058634 c -0.105556,0.08456 -0.216367,0.148003 -0.332434,0.190317 -0.116067,0.04231 -0.226878,0.06344 -0.332433,0.06344 -0.126642,0 -0.242708,-0.02113 -0.348264,-0.06344 -0.105555,-0.04231 -0.211048,-0.116284 -0.316603,-0.222037 -0.865403,-0.909275 -1.509121,-1.850334 -1.93128,-2.823048 -0.4221587,-0.972715 -0.6332064,-1.987743 -0.6332064,-3.045086 0,-0.761271 0.1160667,-1.570122 0.3482636,-2.426552 0.2321968,-0.85643 0.6437808,-2.014197 1.2347528,-3.473301 0.5488,-1.2687851 0.918149,-2.2468284 1.108111,-2.9340662 0.189962,-0.6872377 0.284943,-1.316365 0.284943,-1.8873185 0,-0.8035854 -0.174132,-1.5542624 -0.522395,-2.2520945 C 11.667567,2.4876157 11.124086,1.8003526 10.385324,1.1236712 10.279769,1.017937 10.205937,0.90691815 10.163702,0.79061495 c -0.04223,-0.1163096 -0.06332,-0.2378973 -0.06332,-0.36477586 0,-0.10573425 0.01583,-0.2114685 0.04749,-0.3171964 0.03166,-0.10573425 0.08972,-0.2114685 0.174131,-0.3171964 0.105556,-0.10573425 0.216367,-0.18503335 0.332434,-0.2378973 0.116067,-0.0528703 0.237452,-0.0792991 0.364094,-0.0792991 0.105555,0 0.216366,0.0211443 0.332433,0.0634393 0.116067,0.0422886 0.226878,0.11630323 0.332433,0.22203748 0.928724,0.8669993 1.619933,1.76572453 2.073752,2.69616943 0.453819,0.9304639 0.680697,1.9243037 0.680697,2.9816462 0,0.7189573 -0.105556,1.4749632 -0.316604,2.2679542 -0.211047,0.792991 -0.61212,1.8873186 -1.203092,3.2829825 -0.5488,1.289911 -0.928724,2.310268 -1.139772,3.060945 -0.211047,0.750677 -0.316603,1.443244 -0.316603,2.077637 0,0.82471 0.168876,1.612436 0.506565,2.363113 0.337689,0.750677 0.854829,1.496089 1.551356,2.236235 0.08441,0.105753 0.142472,0.211443 0.174132,0.317196 0.03166,0.105753 0.04749,0.211443 0.04749,0.317196 0,0.126879 -0.02108,0.248492 -0.06332,0.364776 -0.04223,0.116284 -0.116067,0.227303 -0.221622,0.333057 z m 6.427046,0.03172 c -0.105556,0.08457 -0.211048,0.142739 -0.316604,0.174458 -0.105555,0.03172 -0.211047,0.04758 -0.316603,0.04758 -0.126641,0 -0.248027,-0.02113 -0.364094,-0.06344 -0.116066,-0.04231 -0.226878,-0.116284 -0.332433,-0.222037 -0.865403,-0.909275 -1.509121,-1.845005 -1.93128,-2.807188 -0.422159,-0.962184 -0.633206,-1.971883 -0.633206,-3.029226 0,-0.761271 0.116066,-1.570122 0.348263,-2.426552 0.232197,-0.856431 0.643781,-2.014197 1.234753,-3.473301 0.5488,-1.2687854 0.918149,-2.2468288 1.108111,-2.9340665 0.189962,-0.6872377 0.284943,-1.3163651 0.284943,-1.8873186 0,-0.8035854 -0.174132,-1.5489969 -0.522395,-2.2362346 C 18.094613,2.5457896 17.551132,1.8532229 16.81237,1.1553909 16.706814,1.0496566 16.638238,0.94392235 16.606578,0.83819445 c -0.03166,-0.1057343 -0.04749,-0.2220375 -0.04749,-0.34891608 0,-0.10573425 0.01583,-0.21675299 0.04749,-0.33305622 0.03166,-0.11630958 0.08973,-0.22732832 0.174132,-0.33305622 0.105555,-0.10573425 0.216366,-0.17974886 0.332433,-0.22203748 0.116067,-0.042295 0.237453,-0.0634393 0.364094,-0.0634393 0.105555,0 0.211048,0.0158598 0.316603,0.0475795 0.105556,0.0317196 0.211048,0.0898681 0.316603,0.17445802 0.928724,0.8669993 1.619933,1.76572453 2.073752,2.69616943 0.453819,0.9304639 0.680697,1.9243037 0.680697,2.9816462 0,0.7189573 -0.105556,1.4696978 -0.316604,2.2520944 -0.211047,0.7823966 -0.61212,1.8925844 -1.203092,3.3305623 -0.5488,1.268785 -0.928724,2.278548 -1.139772,3.029225 -0.211047,0.750677 -0.316603,1.443244 -0.316603,2.077637 0,0.82471 0.168876,1.622967 0.506565,2.394833 0.337689,0.771865 0.854829,1.517277 1.551356,2.236234 0.08441,0.105754 0.142472,0.211443 0.174132,0.317197 0.03166,0.105753 0.04749,0.211443 0.04749,0.317196 0,0.126879 -0.02108,0.248492 -0.06332,0.364776 -0.04223,0.116284 -0.116067,0.227303 -0.221622,0.333057 z m -12.8540924,0 c -0.1055555,0.08457 -0.2110478,0.142739 -0.3166033,0.174458 -0.1055555,0.03172 -0.2110477,0.04758 -0.3166032,0.04758 -0.1266413,0 -0.248027,-0.02113 -0.3640938,-0.06344 C 5.9159626,22.206637 5.8051514,22.132667 5.6995959,22.026914 4.8341926,21.117639 4.1904749,20.181909 3.7683161,19.219726 3.3461573,18.257542 3.1351096,17.247843 3.1351096,16.1905 c 0,-0.761271 0.1160668,-1.570122 0.3482636,-2.426552 C 3.71557,12.907517 4.1271542,11.749751 4.7181258,10.290647 5.2669259,9.0218616 5.6362753,8.0438182 5.8262372,7.3565805 6.0161992,6.6693428 6.1111801,6.0402154 6.1111801,5.4692619 6.1111801,4.6656765 5.9370484,3.920265 5.5887848,3.2330273 5.2405212,2.5457896 4.6970401,1.8532229 3.9582781,1.1553909 3.8527225,1.0496566 3.7788906,0.93863785 3.7366558,0.82233455 3.6944209,0.70602505 3.6733351,0.58443725 3.6733351,0.45755873 c 0,-0.10573425 0.01583,-0.21675299 0.04749,-0.33305622 0.03166,-0.11630958 0.089725,-0.22732832 0.1741318,-0.33305622 0.1055555,-0.10573425 0.2163667,-0.18503335 0.3324334,-0.2378973 0.1160668,-0.0528703 0.2374524,-0.0792991 0.3640938,-0.0792991 0.1055555,0 0.2163666,0.0211443 0.3324334,0.0634393 0.1160667,0.0422886 0.2268779,0.11630323 0.3324334,0.22203748 0.9287239,0.8669993 1.6199322,1.76572453 2.0737513,2.69616943 0.4538191,0.9304639 0.6806969,1.9243037 0.6806969,2.9816462 0,0.7189573 -0.1108111,1.4855576 -0.3324334,2.2996739 -0.2216222,0.8141162 -0.6173763,1.9084439 -1.1872621,3.2829828 -0.527651,1.268785 -0.8970637,2.27322 -1.1081114,3.013366 -0.2110478,0.740146 -0.3166033,1.437978 -0.3166033,2.093496 0,0.845836 0.1688762,1.649421 0.5065652,2.410692 0.3376891,0.761272 0.8442543,1.501418 1.5196956,2.220375 0.084407,0.105754 0.1424715,0.211443 0.1741318,0.317197 0.03166,0.105753 0.047491,0.211443 0.047491,0.317196 0,0.126879 -0.021086,0.248492 -0.063321,0.364776 -0.042235,0.116284 -0.1160667,0.227303 -0.2216222,0.333056 z"
       stroke-width="0.0660518"
       id="path545"
       style="fill:#ffffff" /></g><path
     style="color:#000000;fill:#ffffff;stroke-width:0.999993;stroke-linecap:round;paint-order:stroke fill markers"
     d="m 167.22603,88.215177 a 3.2880793,3.8070784 0 0 0 -3.28716,3.82207 3.2880793,3.8070784 0 0 0 3.28716,3.80601 h 52.63608 a 3.2880793,3.8070784 0 0 0 3.28716,-3.80601 3.2880793,3.8070784 0 0 0 -3.28716,-3.82207 z"
     id="path719" /><path
     sodipodi:type="star"
     style="fill:url(#linearGradient17682);fill-opacity:1;stroke:none;stroke-width:0.102332;stroke-linecap:round;stroke-dasharray:none;paint-order:stroke fill markers"
     id="path17674"
     inkscape:flatsided="true"
     sodipodi:sides="6"
     sodipodi:cx="-1.8572125"
     sodipodi:cy="2.2234235"
     sodipodi:r1="6.4890633"
     sodipodi:r2="3.2445319"
     sodipodi:arg1="-1.5707963"
     sodipodi:arg2="-1.0471975"
     inkscape:rounded="0.03"
     inkscape:randomized="0"
     d="m -1.8572124,-4.2656398 c 0.1946719,0 5.5223576,3.075941 5.6196936,3.2445318 0.097336,0.16859081 0.097336,6.3204725 -2e-7,6.4890633 -0.097336,0.1685908 -5.4250218,3.2445314 -5.6196937,3.2445314 -0.1946719,0 -5.5223576,-3.0759409 -5.6196936,-3.2445317 -0.097336,-0.1685908 -0.097336,-6.32047249 2e-7,-6.4890633 0.097336,-0.1685908 5.4250218,-3.2445315 5.6196937,-3.2445315 z"
     inkscape:transform-center-y="-16.777632"
     transform="matrix(10.342101,0,0,10.342101,78.081913,44.115677)"
     inkscape:transform-center-x="-1.8256879e-06" /><g
     style="fill:#ffffff;stroke-width:0.132103"
     id="g17678"
     transform="matrix(2.0028445,0,0,2.0028445,34.838013,33.196907)"><path
       fill="#000000"
       d="m 13.456376,22.058634 c -0.105556,0.08456 -0.216367,0.148003 -0.332434,0.190317 -0.116067,0.04231 -0.226878,0.06344 -0.332433,0.06344 -0.126642,0 -0.242708,-0.02113 -0.348264,-0.06344 -0.105555,-0.04231 -0.211048,-0.116284 -0.316603,-0.222037 -0.865403,-0.909275 -1.509121,-1.850334 -1.93128,-2.823048 -0.4221587,-0.972715 -0.6332064,-1.987743 -0.6332064,-3.045086 0,-0.761271 0.1160667,-1.570122 0.3482636,-2.426552 0.2321968,-0.85643 0.6437808,-2.014197 1.2347528,-3.473301 0.5488,-1.2687851 0.918149,-2.2468284 1.108111,-2.9340662 0.189962,-0.6872377 0.284943,-1.316365 0.284943,-1.8873185 0,-0.8035854 -0.174132,-1.5542624 -0.522395,-2.2520945 C 11.667567,2.4876157 11.124086,1.8003526 10.385324,1.1236712 10.279769,1.017937 10.205937,0.90691815 10.163702,0.79061495 c -0.04223,-0.1163096 -0.06332,-0.2378973 -0.06332,-0.36477586 0,-0.10573425 0.01583,-0.2114685 0.04749,-0.3171964 0.03166,-0.10573425 0.08972,-0.2114685 0.174131,-0.3171964 0.105556,-0.10573425 0.216367,-0.18503335 0.332434,-0.2378973 0.116067,-0.0528703 0.237452,-0.0792991 0.364094,-0.0792991 0.105555,0 0.216366,0.0211443 0.332433,0.0634393 0.116067,0.0422886 0.226878,0.11630323 0.332433,0.22203748 0.928724,0.8669993 1.619933,1.76572453 2.073752,2.69616943 0.453819,0.9304639 0.680697,1.9243037 0.680697,2.9816462 0,0.7189573 -0.105556,1.4749632 -0.316604,2.2679542 -0.211047,0.792991 -0.61212,1.8873186 -1.203092,3.2829825 -0.5488,1.289911 -0.928724,2.310268 -1.139772,3.060945 -0.211047,0.750677 -0.316603,1.443244 -0.316603,2.077637 0,0.82471 0.168876,1.612436 0.506565,2.363113 0.337689,0.750677 0.854829,1.496089 1.551356,2.236235 0.08441,0.105753 0.142472,0.211443 0.174132,0.317196 0.03166,0.105753 0.04749,0.211443 0.04749,0.317196 0,0.126879 -0.02108,0.248492 -0.06332,0.364776 -0.04223,0.116284 -0.116067,0.227303 -0.221622,0.333057 z m 6.427046,0.03172 c -0.105556,0.08457 -0.211048,0.142739 -0.316604,0.174458 -0.105555,0.03172 -0.211047,0.04758 -0.316603,0.04758 -0.126641,0 -0.248027,-0.02113 -0.364094,-0.06344 -0.116066,-0.04231 -0.226878,-0.116284 -0.332433,-0.222037 -0.865403,-0.909275 -1.509121,-1.845005 -1.93128,-2.807188 -0.422159,-0.962184 -0.633206,-1.971883 -0.633206,-3.029226 0,-0.761271 0.116066,-1.570122 0.348263,-2.426552 0.232197,-0.856431 0.643781,-2.014197 1.234753,-3.473301 0.5488,-1.2687854 0.918149,-2.2468288 1.108111,-2.9340665 0.189962,-0.6872377 0.284943,-1.3163651 0.284943,-1.8873186 0,-0.8035854 -0.174132,-1.5489969 -0.522395,-2.2362346 C 18.094613,2.5457896 17.551132,1.8532229 16.81237,1.1553909 16.706814,1.0496566 16.638238,0.94392235 16.606578,0.83819445 c -0.03166,-0.1057343 -0.04749,-0.2220375 -0.04749,-0.34891608 0,-0.10573425 0.01583,-0.21675299 0.04749,-0.33305622 0.03166,-0.11630958 0.08973,-0.22732832 0.174132,-0.33305622 0.105555,-0.10573425 0.216366,-0.17974886 0.332433,-0.22203748 0.116067,-0.042295 0.237453,-0.0634393 0.364094,-0.0634393 0.105555,0 0.211048,0.0158598 0.316603,0.0475795 0.105556,0.0317196 0.211048,0.0898681 0.316603,0.17445802 0.928724,0.8669993 1.619933,1.76572453 2.073752,2.69616943 0.453819,0.9304639 0.680697,1.9243037 0.680697,2.9816462 0,0.7189573 -0.105556,1.4696978 -0.316604,2.2520944 -0.211047,0.7823966 -0.61212,1.8925844 -1.203092,3.3305623 -0.5488,1.268785 -0.928724,2.278548 -1.139772,3.029225 -0.211047,0.750677 -0.316603,1.443244 -0.316603,2.077637 0,0.82471 0.168876,1.622967 0.506565,2.394833 0.337689,0.771865 0.854829,1.517277 1.551356,2.236234 0.08441,0.105754 0.142472,0.211443 0.174132,0.317197 0.03166,0.105753 0.04749,0.211443 0.04749,0.317196 0,0.126879 -0.02108,0.248492 -0.06332,0.364776 -0.04223,0.116284 -0.116067,0.227303 -0.221622,0.333057 z m -12.8540924,0 c -0.1055555,0.08457 -0.2110478,0.142739 -0.3166033,0.174458 -0.1055555,0.03172 -0.2110477,0.04758 -0.3166032,0.04758 -0.1266413,0 -0.248027,-0.02113 -0.3640938,-0.06344 C 5.9159626,22.206637 5.8051514,22.132667 5.6995959,22.026914 4.8341926,21.117639 4.1904749,20.181909 3.7683161,19.219726 3.3461573,18.257542 3.1351096,17.247843 3.1351096,16.1905 c 0,-0.761271 0.1160668,-1.570122 0.3482636,-2.426552 C 3.71557,12.907517 4.1271542,11.749751 4.7181258,10.290647 5.2669259,9.0218616 5.6362753,8.0438182 5.8262372,7.3565805 6.0161992,6.6693428 6.1111801,6.0402154 6.1111801,5.4692619 6.1111801,4.6656765 5.9370484,3.920265 5.5887848,3.2330273 5.2405212,2.5457896 4.6970401,1.8532229 3.9582781,1.1553909 3.8527225,1.0496566 3.7788906,0.93863785 3.7366558,0.82233455 3.6944209,0.70602505 3.6733351,0.58443725 3.6733351,0.45755873 c 0,-0.10573425 0.01583,-0.21675299 0.04749,-0.33305622 0.03166,-0.11630958 0.089725,-0.22732832 0.1741318,-0.33305622 0.1055555,-0.10573425 0.2163667,-0.18503335 0.3324334,-0.2378973 0.1160668,-0.0528703 0.2374524,-0.0792991 0.3640938,-0.0792991 0.1055555,0 0.2163666,0.0211443 0.3324334,0.0634393 0.1160667,0.0422886 0.2268779,0.11630323 0.3324334,0.22203748 0.9287239,0.8669993 1.6199322,1.76572453 2.0737513,2.69616943 0.4538191,0.9304639 0.6806969,1.9243037 0.6806969,2.9816462 0,0.7189573 -0.1108111,1.4855576 -0.3324334,2.2996739 -0.2216222,0.8141162 -0.6173763,1.9084439 -1.1872621,3.2829828 -0.527651,1.268785 -0.8970637,2.27322 -1.1081114,3.013366 -0.2110478,0.740146 -0.3166033,1.437978 -0.3166033,2.093496 0,0.845836 0.1688762,1.649421 0.5065652,2.410692 0.3376891,0.761272 0.8442543,1.501418 1.5196956,2.220375 0.084407,0.105754 0.1424715,0.211443 0.1741318,0.317197 0.03166,0.105753 0.047491,0.211443 0.047491,0.317196 0,0.126879 -0.021086,0.248492 -0.063321,0.364776 -0.042235,0.116284 -0.1160667,0.227303 -0.2216222,0.333056 z"
       stroke-width="0.0660518"
       id="path17676"
       style="fill:#ffffff" /></g><path
     style="color:#000000;fill:#ffffff;stroke-width:0.999993;stroke-linecap:round;paint-order:stroke fill markers"
     d="m 32.556403,88.215177 a 3.2880793,3.8070784 0 0 0 -3.28716,3.82207 3.2880793,3.8070784 0 0 0 3.28716,3.80601 h 52.63607 a 3.2880793,3.8070784 0 0 0 3.28715,-3.80601 3.2880793,3.8070784 0 0 0 -3.28715,-3.82207 z"
     id="path17680" /></svg>
